<?xml version="1.0" encoding="UTF-8"?>
<!DOCTYPE svg PUBLIC "-//W3C//DTD SVG 1.1//EN" "http://www.w3.org/Graphics/SVG/1.1/DTD/svg11.dtd">
<svg xmlns="http://www.w3.org/2000/svg" version="1.1" width="512px" height="512px" style="shape-rendering:geometricPrecision; text-rendering:geometricPrecision; image-rendering:optimizeQuality; fill-rule:evenodd; clip-rule:evenodd" xmlns:xlink="http://www.w3.org/1999/xlink">
<g><path style="opacity:0.966" fill="#000000" d="M 308.5,-0.5 C 373.833,-0.5 439.167,-0.5 504.5,-0.5C 506.27,1.11327 507.436,3.11327 508,5.5C 508.667,68.8333 508.667,132.167 508,195.5C 507.594,198.494 506.094,200.661 503.5,202C 491.833,202.667 480.167,202.667 468.5,202C 465.507,200.841 463.84,198.675 463.5,195.5C 463.667,191.976 465.333,189.476 468.5,188C 476.493,187.5 484.493,187.334 492.5,187.5C 492.5,129.833 492.5,72.1667 492.5,14.5C 447.5,14.5 402.5,14.5 357.5,14.5C 345.167,14.5 332.833,14.5 320.5,14.5C 319.501,71.9976 319.168,129.664 319.5,187.5C 359.167,187.5 398.833,187.5 438.5,187.5C 442.395,188.73 444.395,191.397 444.5,195.5C 444.16,198.675 442.493,200.841 439.5,202C 396.167,202.667 352.833,202.667 309.5,202C 308.069,201.535 306.903,200.701 306,199.5C 304.341,134.249 304.007,68.9154 305,3.5C 306.032,1.97331 307.199,0.639972 308.5,-0.5 Z"/></g>
<g><path style="opacity:1" fill="#0dd08f" d="M 320.5,14.5 C 332.833,14.5 345.167,14.5 357.5,14.5C 357.5,61.5 357.5,108.5 357.5,155.5C 392.671,155.168 427.671,155.502 462.5,156.5C 424.165,156.333 385.832,156.5 347.5,157C 342.014,162.081 342.347,166.748 348.5,171C 351.482,171.498 354.482,171.665 357.5,171.5C 357.5,176.5 357.5,181.5 357.5,186.5C 345.167,186.5 332.833,186.5 320.5,186.5C 320.5,129.167 320.5,71.8333 320.5,14.5 Z"/></g>
<g><path style="opacity:1" fill="#05e19b" d="M 357.5,14.5 C 402.5,14.5 447.5,14.5 492.5,14.5C 492.5,72.1667 492.5,129.833 492.5,187.5C 484.493,187.334 476.493,187.5 468.5,188C 465.333,189.476 463.667,191.976 463.5,195.5C 457.167,195.5 450.833,195.5 444.5,195.5C 444.395,191.397 442.395,188.73 438.5,187.5C 411.672,186.502 384.672,186.169 357.5,186.5C 357.5,181.5 357.5,176.5 357.5,171.5C 392.835,171.667 428.168,171.5 463.5,171C 469.331,168.828 470.831,164.995 468,159.5C 466.512,157.84 464.679,156.84 462.5,156.5C 427.671,155.502 392.671,155.168 357.5,155.5C 357.5,108.5 357.5,61.5 357.5,14.5 Z"/></g>
<g><path style="opacity:1" fill="#010503" d="M 338.5,30.5 C 342.909,29.6185 346.409,30.9518 349,34.5C 349.667,39.5 349.667,44.5 349,49.5C 346.565,54.2238 342.731,55.7238 337.5,54C 336.299,53.0975 335.465,51.9308 335,50.5C 334.333,45.1667 334.333,39.8333 335,34.5C 335.69,32.6498 336.856,31.3164 338.5,30.5 Z"/></g>
<g><path style="opacity:0.969" fill="#000000" d="M 230.5,202.5 C 226.976,202.333 224.476,200.667 223,197.5C 222.5,156.501 222.333,115.501 222.5,74.5C 166.167,74.5 109.833,74.5 53.5,74.5C 41.8333,74.5 30.1667,74.5 18.5,74.5C 18.5,142.167 18.5,209.833 18.5,277.5C 74.3348,278.167 130.335,278.833 186.5,279.5C 184.698,283.714 183.364,288.048 182.5,292.5C 127.833,292.5 73.1667,292.5 18.5,292.5C 18.5,360.5 18.5,428.5 18.5,496.5C 30.1667,496.5 41.8333,496.5 53.5,496.5C 109.833,496.5 166.167,496.5 222.5,496.5C 222.5,465.5 222.5,434.5 222.5,403.5C 226.926,406.594 231.593,409.261 236.5,411.5C 236.169,440.005 236.502,468.338 237.5,496.5C 248.833,496.5 260.167,496.5 271.5,496.5C 326.5,496.5 381.5,496.5 436.5,496.5C 442.117,501.479 448.784,503.479 456.5,502.5C 456.317,506.063 454.983,509.063 452.5,511.5C 303.833,511.5 155.167,511.5 6.5,511.5C 4.73042,509.887 3.56375,507.887 3,505.5C 2.00467,357.778 2.33801,210.111 4,62.5C 5.21398,60.9512 6.71398,59.7845 8.5,59C 82.8333,58.3333 157.167,58.3333 231.5,59C 234.057,59.6853 235.891,61.1853 237,63.5C 237.667,108.167 237.667,152.833 237,197.5C 235.841,200.493 233.675,202.16 230.5,202.5 Z"/></g>
<g><path style="opacity:1" fill="#000302" d="M 424.5,112.5 C 424.56,113.043 424.893,113.376 425.5,113.5C 426.499,96.8467 426.833,80.18 426.5,63.5C 427.512,60.1471 429.846,58.4805 433.5,58.5C 436.574,58.4499 438.741,59.7832 440,62.5C 440.667,88.1667 440.667,113.833 440,139.5C 434.282,145.228 429.282,144.562 425,137.5C 412.716,120.881 400.049,104.547 387,88.5C 386.667,105.167 386.333,121.833 386,138.5C 380.854,145.406 376.187,145.073 372,137.5C 371.333,112.833 371.333,88.1667 372,63.5C 374.072,58.8567 377.572,57.3567 382.5,59C 397.096,76.4217 411.096,94.2551 424.5,112.5 Z"/></g>
<g><path style="opacity:1" fill="#025d40" d="M 426.5,63.5 C 426.833,80.18 426.499,96.8467 425.5,113.5C 424.893,113.376 424.56,113.043 424.5,112.5C 425.167,96.1667 425.833,79.8333 426.5,63.5 Z"/></g>
<g><path style="opacity:1" fill="#0dcd8d" d="M 53.5,74.5 C 53.5,130.167 53.5,185.833 53.5,241.5C 98.0031,241.168 142.336,241.501 186.5,242.5C 141.499,242.333 96.4988,242.5 51.5,243C 47.5,247.333 47.5,251.667 51.5,256C 96.4988,256.5 141.499,256.667 186.5,256.5C 142.336,257.499 98.0031,257.832 53.5,257.5C 53.5,264.167 53.5,270.833 53.5,277.5C 41.8333,277.5 30.1667,277.5 18.5,277.5C 18.5,209.833 18.5,142.167 18.5,74.5C 30.1667,74.5 41.8333,74.5 53.5,74.5 Z"/></g>
<g><path style="opacity:1" fill="#05e19b" d="M 53.5,74.5 C 109.833,74.5 166.167,74.5 222.5,74.5C 222.333,115.501 222.5,156.501 223,197.5C 224.476,200.667 226.976,202.333 230.5,202.5C 230.5,208.833 230.5,215.167 230.5,221.5C 225.568,221.932 222.734,224.599 222,229.5C 206.48,242.191 194.98,257.858 187.5,276.5C 142.838,277.5 98.1716,277.833 53.5,277.5C 53.5,270.833 53.5,264.167 53.5,257.5C 98.0031,257.832 142.336,257.499 186.5,256.5C 191.187,254.797 193.02,251.463 192,246.5C 190.549,244.536 188.716,243.203 186.5,242.5C 142.336,241.501 98.0031,241.168 53.5,241.5C 53.5,185.833 53.5,130.167 53.5,74.5 Z"/></g>
<g><path style="opacity:1" fill="#010503" d="M 41.5,95.5 C 43.8568,95.3367 46.1902,95.5034 48.5,96C 50.3333,96.5 51.5,97.6667 52,99.5C 52.6667,105.167 52.6667,110.833 52,116.5C 49.9276,121.143 46.4276,122.643 41.5,121C 39.9512,119.786 38.7845,118.286 38,116.5C 37.3333,110.833 37.3333,105.167 38,99.5C 39.3756,98.2949 40.5423,96.9616 41.5,95.5 Z"/></g>
<g><path style="opacity:1" fill="#010503" d="M 86.5,127.5 C 91.0226,127.345 94.1893,129.345 96,133.5C 96.4999,145.162 96.6665,156.829 96.5,168.5C 112.5,168.5 128.5,168.5 144.5,168.5C 144.333,156.495 144.5,144.495 145,132.5C 149.617,125.848 154.283,125.848 159,132.5C 159.667,161.167 159.667,189.833 159,218.5C 157.524,223.114 154.357,224.947 149.5,224C 147.333,223.167 145.833,221.667 145,219.5C 144.5,207.505 144.333,195.505 144.5,183.5C 128.5,183.5 112.5,183.5 96.5,183.5C 96.6665,195.171 96.4999,206.838 96,218.5C 92.1257,225.411 87.4591,226.078 82,220.5C 81.3333,190.833 81.3333,161.167 82,131.5C 83.3968,129.93 84.8968,128.596 86.5,127.5 Z"/></g>
<g><path style="opacity:1" fill="#000403" d="M 462.5,156.5 C 464.679,156.84 466.512,157.84 468,159.5C 470.831,164.995 469.331,168.828 463.5,171C 428.168,171.5 392.835,171.667 357.5,171.5C 354.482,171.665 351.482,171.498 348.5,171C 342.347,166.748 342.014,162.081 347.5,157C 385.832,156.5 424.165,156.333 462.5,156.5 Z"/></g>
<g><path style="opacity:1" fill="#057a54" d="M 320.5,14.5 C 320.5,71.8333 320.5,129.167 320.5,186.5C 332.833,186.5 345.167,186.5 357.5,186.5C 384.672,186.169 411.672,186.502 438.5,187.5C 398.833,187.5 359.167,187.5 319.5,187.5C 319.168,129.664 319.501,71.9976 320.5,14.5 Z"/></g>
<g><path style="opacity:0.967" fill="#35495d" d="M 394.5,277.5 C 395.883,282.415 396.883,287.415 397.5,292.5C 397.263,293.791 397.596,294.791 398.5,295.5C 402.431,321.999 398.097,346.999 385.5,370.5C 382.5,375.167 379.5,379.833 376.5,384.5C 371.199,389.966 365.699,395.3 360,400.5C 359.536,401.094 359.369,401.761 359.5,402.5C 357.517,403.471 355.517,404.471 353.5,405.5C 349.148,407.673 345.148,410.34 341.5,413.5C 336.53,416.49 331.197,418.49 325.5,419.5C 311.959,423.232 298.292,425.232 284.5,425.5C 284.167,425.5 283.833,425.5 283.5,425.5C 278.807,425.46 274.141,425.127 269.5,424.5C 269.389,423.883 269.056,423.383 268.5,423C 258.046,420.691 248.046,417.191 238.5,412.5C 238.158,411.662 237.492,411.328 236.5,411.5C 231.593,409.261 226.926,406.594 222.5,403.5C 217.946,398.443 213.113,393.443 208,388.5C 184.993,360.81 176.493,329.143 182.5,293.5C 182.5,293.167 182.5,292.833 182.5,292.5C 183.364,288.048 184.698,283.714 186.5,279.5C 130.335,278.833 74.3348,278.167 18.5,277.5C 30.1667,277.5 41.8333,277.5 53.5,277.5C 98.1716,277.833 142.838,277.5 187.5,276.5C 194.98,257.858 206.48,242.191 222,229.5C 222.734,224.599 225.568,221.932 230.5,221.5C 271.093,198.438 311.427,198.938 351.5,223C 371.939,236.391 386.272,254.558 394.5,277.5 Z"/></g>
<g><path style="opacity:0.997" fill="#5c6b7c" d="M 277.5,217.5 C 320.382,214.69 353.215,231.357 376,267.5C 397.406,312.797 390.573,353.297 355.5,389C 320.74,416.889 283.074,421.222 242.5,402C 200.931,374.664 185.431,336.498 196,287.5C 209.833,248.492 236.999,225.158 277.5,217.5 Z"/></g>
<g><path style="opacity:0.424" fill="#cde1f1" d="M 371.5,276.5 C 327.67,277.499 283.67,277.832 239.5,277.5C 237.523,266.884 236.856,255.884 237.5,244.5C 237.5,243.833 237.5,243.167 237.5,242.5C 264.493,223.822 293.493,220.322 324.5,232C 345.379,241.42 361.046,256.254 371.5,276.5 Z"/></g>
<g><path style="opacity:0.424" fill="#fcfdfe" d="M 277.5,236.5 C 283.403,235.488 288.57,236.821 293,240.5C 294.227,244.591 293.394,248.091 290.5,251C 278.616,252.113 267.616,255.78 257.5,262C 251.074,263.251 247.407,260.584 246.5,254C 246.795,251.077 248.129,248.743 250.5,247C 258.969,242.013 267.969,238.513 277.5,236.5 Z"/></g>
<g><path style="opacity:1" fill="#000000" d="M 186.5,242.5 C 188.716,243.203 190.549,244.536 192,246.5C 193.02,251.463 191.187,254.797 186.5,256.5C 141.499,256.667 96.4988,256.5 51.5,256C 47.5,251.667 47.5,247.333 51.5,243C 96.4988,242.5 141.499,242.333 186.5,242.5 Z"/></g>
<g><path style="opacity:1" fill="#8b9aa4" d="M 237.5,242.5 C 237.5,243.167 237.5,243.833 237.5,244.5C 236.51,250.31 236.177,256.31 236.5,262.5C 234.801,262.34 233.134,262.506 231.5,263C 227.787,266.963 224.454,271.129 221.5,275.5C 221.5,269.167 221.5,262.833 221.5,256.5C 226.537,251.461 231.871,246.794 237.5,242.5 Z"/></g>
<g><path style="opacity:1" fill="#7fd9bb" d="M 221.5,256.5 C 221.5,262.833 221.5,269.167 221.5,275.5C 221.672,276.492 221.338,277.158 220.5,277.5C 216.5,277.5 212.5,277.5 208.5,277.5C 207.761,277.631 207.094,277.464 206.5,277C 210.219,269.056 215.052,261.889 221,255.5C 221.399,255.728 221.565,256.062 221.5,256.5 Z"/></g>
<g><path style="opacity:1" fill="#aeaeae" d="M 237.5,244.5 C 236.856,255.884 237.523,266.884 239.5,277.5C 226.479,296.768 223.979,317.434 232,339.5C 232.582,346.417 229.415,350.084 222.5,350.5C 222.5,358.5 222.5,366.5 222.5,374.5C 222.167,374.5 221.833,374.5 221.5,374.5C 221.5,374.167 221.5,373.833 221.5,373.5C 221.5,365.5 221.5,357.5 221.5,349.5C 221.5,330.833 221.5,312.167 221.5,293.5C 218.833,293.5 216.167,293.5 213.5,293.5C 209.833,293.5 206.167,293.5 202.5,293.5C 202.167,293.5 201.833,293.5 201.5,293.5C 201.842,292.662 202.508,292.328 203.5,292.5C 207.226,292.823 210.893,292.489 214.5,291.5C 216.312,286.722 218.312,282.055 220.5,277.5C 221.338,277.158 221.672,276.492 221.5,275.5C 224.454,271.129 227.787,266.963 231.5,263C 233.134,262.506 234.801,262.34 236.5,262.5C 236.177,256.31 236.51,250.31 237.5,244.5 Z"/></g>
<g><path style="opacity:0.945" fill="#020000" d="M 394.5,277.5 C 413.503,277.333 432.503,277.5 451.5,278C 453.333,278.5 454.5,279.667 455,281.5C 456.653,332.775 456.986,384.108 456,435.5C 455.576,438.025 454.41,440.025 452.5,441.5C 448.227,438.566 444.227,435.233 440.5,431.5C 440.5,385.5 440.5,339.5 440.5,293.5C 426.343,292.504 412.01,292.171 397.5,292.5C 396.883,287.415 395.883,282.415 394.5,277.5 Z"/></g>
<g><path style="opacity:1" fill="#8b99a4" d="M 208.5,277.5 C 212.5,277.5 216.5,277.5 220.5,277.5C 218.312,282.055 216.312,286.722 214.5,291.5C 210.893,292.489 207.226,292.823 203.5,292.5C 204.566,287.303 206.232,282.303 208.5,277.5 Z"/></g>
<g><path style="opacity:1" fill="#8e9aa6" d="M 371.5,276.5 C 374.268,281.8 376.268,287.467 377.5,293.5C 342.167,293.5 306.833,293.5 271.5,293.5C 260.167,293.5 248.833,293.5 237.5,293.5C 237.5,325.167 237.5,356.833 237.5,388.5C 231.803,384.502 226.803,379.835 222.5,374.5C 222.5,366.5 222.5,358.5 222.5,350.5C 229.415,350.084 232.582,346.417 232,339.5C 223.979,317.434 226.479,296.768 239.5,277.5C 283.67,277.832 327.67,277.499 371.5,276.5 Z"/></g>
<g><path style="opacity:1" fill="#98265c" d="M 397.5,292.5 C 412.01,292.171 426.343,292.504 440.5,293.5C 426.127,292.851 412.127,293.518 398.5,295.5C 397.596,294.791 397.263,293.791 397.5,292.5 Z"/></g>
<g><path style="opacity:1" fill="#e5b600" d="M 182.5,292.5 C 182.5,292.833 182.5,293.167 182.5,293.5C 139.5,293.5 96.5,293.5 53.5,293.5C 53.5,361.167 53.5,428.833 53.5,496.5C 41.8333,496.5 30.1667,496.5 18.5,496.5C 18.5,428.5 18.5,360.5 18.5,292.5C 73.1667,292.5 127.833,292.5 182.5,292.5 Z"/></g>
<g><path style="opacity:1" fill="#f8c400" d="M 182.5,293.5 C 176.493,329.143 184.993,360.81 208,388.5C 213.113,393.443 217.946,398.443 222.5,403.5C 222.5,434.5 222.5,465.5 222.5,496.5C 166.167,496.5 109.833,496.5 53.5,496.5C 53.5,428.833 53.5,361.167 53.5,293.5C 96.5,293.5 139.5,293.5 182.5,293.5 Z"/></g>
<g><path style="opacity:1" fill="#e8d1a4" d="M 202.5,293.5 C 206.167,293.5 209.833,293.5 213.5,293.5C 209.924,311.177 211.091,328.511 217,345.5C 217.748,347.751 219.248,349.084 221.5,349.5C 221.5,357.5 221.5,365.5 221.5,373.5C 202.47,350.051 196.137,323.384 202.5,293.5 Z"/></g>
<g><path style="opacity:1" fill="#fbdfad" d="M 213.5,293.5 C 216.167,293.5 218.833,293.5 221.5,293.5C 221.5,312.167 221.5,330.833 221.5,349.5C 219.248,349.084 217.748,347.751 217,345.5C 211.091,328.511 209.924,311.177 213.5,293.5 Z"/></g>
<g><path style="opacity:1" fill="#da9aba" d="M 271.5,293.5 C 271.5,298.167 271.5,302.833 271.5,307.5C 267.486,307.334 263.486,307.501 259.5,308C 252.023,312.67 251.689,317.67 258.5,323C 262.821,323.499 267.154,323.666 271.5,323.5C 271.5,331.5 271.5,339.5 271.5,347.5C 270.68,349.14 269.847,350.807 269,352.5C 268.5,369.497 268.333,386.497 268.5,403.5C 258.039,401.734 248.373,397.901 239.5,392C 238.177,391.184 237.511,390.017 237.5,388.5C 237.5,356.833 237.5,325.167 237.5,293.5C 248.833,293.5 260.167,293.5 271.5,293.5 Z"/></g>
<g><path style="opacity:1" fill="#ea9ec3" d="M 271.5,293.5 C 306.833,293.5 342.167,293.5 377.5,293.5C 377.833,293.5 378.167,293.5 378.5,293.5C 384.03,321.35 378.53,346.684 362,369.5C 361.517,370.448 361.351,371.448 361.5,372.5C 353.263,382.081 343.597,389.748 332.5,395.5C 331.327,393.496 329.66,391.996 327.5,391C 333.537,380.778 334.037,370.278 329,359.5C 324.563,353.399 318.73,349.233 311.5,347C 298.122,346.203 284.788,346.37 271.5,347.5C 271.5,339.5 271.5,331.5 271.5,323.5C 280.528,322.527 282.861,318.027 278.5,310C 276.35,308.589 274.016,307.755 271.5,307.5C 271.5,302.833 271.5,298.167 271.5,293.5 Z"/></g>
<g><path style="opacity:1" fill="#fd3d96" d="M 440.5,293.5 C 440.5,339.5 440.5,385.5 440.5,431.5C 430.702,422.202 421.035,412.702 411.5,403C 410.906,402.536 410.239,402.369 409.5,402.5C 409.167,401.167 408.833,399.833 408.5,398.5C 407.914,383.317 400.247,373.984 385.5,370.5C 398.097,346.999 402.431,321.999 398.5,295.5C 412.127,293.518 426.127,292.851 440.5,293.5 Z"/></g>
<g><path style="opacity:1" fill="#8f9aa5" d="M 271.5,307.5 C 274.016,307.755 276.35,308.589 278.5,310C 282.861,318.027 280.528,322.527 271.5,323.5C 267.154,323.666 262.821,323.499 258.5,323C 251.689,317.67 252.023,312.67 259.5,308C 263.486,307.501 267.486,307.334 271.5,307.5 Z"/></g>
<g><path style="opacity:1" fill="#c16491" d="M 378.5,293.5 C 385.648,322.576 379.981,348.909 361.5,372.5C 361.351,371.448 361.517,370.448 362,369.5C 378.53,346.684 384.03,321.35 378.5,293.5 Z"/></g>
<g><path style="opacity:1" fill="#080500" d="M 42.5,313.5 C 46.4257,313.047 49.5923,314.38 52,317.5C 52.6667,323.5 52.6667,329.5 52,335.5C 46.854,342.406 42.1873,342.073 38,334.5C 37.3333,329.167 37.3333,323.833 38,318.5C 39.025,316.313 40.525,314.646 42.5,313.5 Z"/></g>
<g><path style="opacity:1" fill="#c6a867" d="M 201.5,293.5 C 201.833,293.5 202.167,293.5 202.5,293.5C 196.137,323.384 202.47,350.051 221.5,373.5C 221.5,373.833 221.5,374.167 221.5,374.5C 220.671,375.332 219.838,374.999 219,373.5C 200.388,349.527 194.555,322.861 201.5,293.5 Z"/></g>
<g><path style="opacity:1" fill="#010100" d="M 76.5,346.5 C 80.8027,345.796 84.3027,347.13 87,350.5C 87.5,376.498 87.6666,402.498 87.5,428.5C 102.504,428.333 117.504,428.5 132.5,429C 137.833,433.333 137.833,437.667 132.5,442C 113.833,442.667 95.1667,442.667 76.5,442C 75.6667,441.167 74.8333,440.333 74,439.5C 72.3499,410.253 72.0165,380.919 73,351.5C 73.9973,349.677 75.1639,348.01 76.5,346.5 Z"/></g>
<g><path style="opacity:1" fill="#8d99a5" d="M 332.5,395.5 C 326.707,397.463 321.04,399.797 315.5,402.5C 305.167,402.5 294.833,402.5 284.5,402.5C 284.5,403.5 284.5,404.5 284.5,405.5C 279.009,405.752 273.675,405.085 268.5,403.5C 268.333,386.497 268.5,369.497 269,352.5C 269.847,350.807 270.68,349.14 271.5,347.5C 284.788,346.37 298.122,346.203 311.5,347C 318.73,349.233 324.563,353.399 329,359.5C 334.037,370.278 333.537,380.778 327.5,391C 329.66,391.996 331.327,393.496 332.5,395.5 Z"/></g>
<g><path style="opacity:1" fill="#0b0701" d="M 157.5,359.5 C 161.426,359.047 164.592,360.38 167,363.5C 167.667,367.833 167.667,372.167 167,376.5C 166.535,377.931 165.701,379.097 164.5,380C 159.269,381.724 155.435,380.224 153,375.5C 151.208,369.03 152.708,363.696 157.5,359.5 Z"/></g>
<g><path style="opacity:1" fill="#e99ec3" d="M 284.5,361.5 C 293.25,361.09 301.916,361.59 310.5,363C 318.352,368.618 319.518,375.451 314,383.5C 311.913,384.794 309.746,385.961 307.5,387C 299.841,387.5 292.174,387.666 284.5,387.5C 284.5,378.833 284.5,370.167 284.5,361.5 Z"/></g>
<g><path style="opacity:1" fill="#070305" d="M 385.5,370.5 C 400.247,373.984 407.914,383.317 408.5,398.5C 402.903,395.324 397.903,395.991 393.5,400.5C 394.009,389.343 388.675,384.343 377.5,385.5C 377.5,384.833 377.167,384.5 376.5,384.5C 379.5,379.833 382.5,375.167 385.5,370.5 Z"/></g>
<g><path style="opacity:1" fill="#f23e91" d="M 377.5,385.5 C 388.675,384.343 394.009,389.343 393.5,400.5C 393.167,400.5 392.833,400.5 392.5,400.5C 387.167,395.833 382.167,390.833 377.5,385.5 Z"/></g>
<g><path style="opacity:1" fill="#5d6a7b" d="M 376.5,384.5 C 377.167,384.5 377.5,384.833 377.5,385.5C 382.167,390.833 387.167,395.833 392.5,400.5C 388.784,405.726 384.45,410.559 379.5,415C 379.833,415.333 380.167,415.667 380.5,416C 379.211,417.802 377.544,418.969 375.5,419.5C 375.167,417.167 373.833,415.833 371.5,415.5C 367.5,411.167 363.5,406.833 359.5,402.5C 359.369,401.761 359.536,401.094 360,400.5C 365.699,395.3 371.199,389.966 376.5,384.5 Z"/></g>
<g><path style="opacity:1" fill="#0b0701" d="M 157.5,391.5 C 161.684,390.704 164.85,392.037 167,395.5C 167.667,409.833 167.667,424.167 167,438.5C 164.487,442.212 160.987,443.378 156.5,442C 154.951,440.786 153.785,439.286 153,437.5C 152.333,423.833 152.333,410.167 153,396.5C 154.025,394.313 155.525,392.646 157.5,391.5 Z"/></g>
<g><path style="opacity:1" fill="#34485c" d="M 408.5,398.5 C 408.833,399.833 409.167,401.167 409.5,402.5C 408.5,402.833 407.833,403.5 407.5,404.5C 405.5,405.833 403.833,407.5 402.5,409.5C 393.5,417.833 384.833,426.5 376.5,435.5C 371.54,432.91 369.874,428.91 371.5,423.5C 373.167,422.5 374.5,421.167 375.5,419.5C 377.544,418.969 379.211,417.802 380.5,416C 380.167,415.667 379.833,415.333 379.5,415C 384.45,410.559 388.784,405.726 392.5,400.5C 392.833,400.5 393.167,400.5 393.5,400.5C 397.903,395.991 402.903,395.324 408.5,398.5 Z"/></g>
<g><path style="opacity:1" fill="#d693b6" d="M 315.5,402.5 C 311.491,404.421 307.157,405.588 302.5,406C 296.319,406.819 290.319,406.653 284.5,405.5C 284.5,404.5 284.5,403.5 284.5,402.5C 294.833,402.5 305.167,402.5 315.5,402.5 Z"/></g>
<g><path style="opacity:1" fill="#050202" d="M 359.5,402.5 C 363.5,406.833 367.5,411.167 371.5,415.5C 370.5,415.5 369.5,415.5 368.5,415.5C 368.722,418.504 369.722,421.171 371.5,423.5C 369.874,428.91 371.54,432.91 376.5,435.5C 377.754,438.093 379.42,440.427 381.5,442.5C 367.198,441.708 358.032,434.375 354,420.5C 353.501,415.511 353.334,410.511 353.5,405.5C 355.517,404.471 357.517,403.471 359.5,402.5 Z"/></g>
<g><path style="opacity:0.975" fill="#fd8d31" d="M 409.5,402.5 C 410.239,402.369 410.906,402.536 411.5,403C 421.035,412.702 430.702,422.202 440.5,431.5C 444.227,435.233 448.227,438.566 452.5,441.5C 459.464,448.965 466.631,456.298 474,463.5C 481.946,482.862 476.113,495.862 456.5,502.5C 448.784,503.479 442.117,501.479 436.5,496.5C 428.194,487.527 419.527,478.86 410.5,470.5C 406.833,467.5 403.5,464.167 400.5,460.5C 394.798,453.797 388.464,447.797 381.5,442.5C 379.42,440.427 377.754,438.093 376.5,435.5C 384.833,426.5 393.5,417.833 402.5,409.5C 422.465,429.965 442.632,450.299 463,470.5C 464.504,474.039 464.837,477.705 464,481.5C 462.674,483.983 461.507,486.483 460.5,489C 460.767,492.164 462.433,493.164 465.5,492C 472.44,483.761 473.274,474.928 468,465.5C 447.632,445.299 427.465,424.965 407.5,404.5C 407.833,403.5 408.5,402.833 409.5,402.5 Z"/></g>
<g><path style="opacity:1" fill="#fdc956" d="M 407.5,404.5 C 427.465,424.965 447.632,445.299 468,465.5C 473.274,474.928 472.44,483.761 465.5,492C 462.433,493.164 460.767,492.164 460.5,489C 461.507,486.483 462.674,483.983 464,481.5C 464.837,477.705 464.504,474.039 463,470.5C 442.632,450.299 422.465,429.965 402.5,409.5C 403.833,407.5 405.5,405.833 407.5,404.5 Z"/></g>
<g><path style="opacity:1" fill="#fa3c94" d="M 353.5,405.5 C 353.334,410.511 353.501,415.511 354,420.5C 358.032,434.375 367.198,441.708 381.5,442.5C 388.464,447.797 394.798,453.797 400.5,460.5C 357.5,460.5 314.5,460.5 271.5,460.5C 270.88,454.074 271.547,448.074 273.5,442.5C 290.223,442.941 306.89,442.441 323.5,441C 335.161,435.505 341.161,426.338 341.5,413.5C 345.148,410.34 349.148,407.673 353.5,405.5 Z"/></g>
<g><path style="opacity:1" fill="#6f103e" d="M 236.5,411.5 C 237.492,411.328 238.158,411.662 238.5,412.5C 237.502,440.328 237.169,468.328 237.5,496.5C 236.502,468.338 236.169,440.005 236.5,411.5 Z"/></g>
<g><path style="opacity:1" fill="#e21e7e" d="M 238.5,412.5 C 248.046,417.191 258.046,420.691 268.5,423C 269.056,423.383 269.389,423.883 269.5,424.5C 269.334,429.179 269.501,433.845 270,438.5C 270.69,440.35 271.856,441.684 273.5,442.5C 271.547,448.074 270.88,454.074 271.5,460.5C 264.833,465.5 264.833,470.5 271.5,475.5C 271.5,482.5 271.5,489.5 271.5,496.5C 260.167,496.5 248.833,496.5 237.5,496.5C 237.169,468.328 237.502,440.328 238.5,412.5 Z"/></g>
<g><path style="opacity:1" fill="#020001" d="M 341.5,413.5 C 341.161,426.338 335.161,435.505 323.5,441C 306.89,442.441 290.223,442.941 273.5,442.5C 271.856,441.684 270.69,440.35 270,438.5C 269.501,433.845 269.334,429.179 269.5,424.5C 274.141,425.127 278.807,425.46 283.5,425.5C 283.5,426.5 283.5,427.5 283.5,428.5C 294.679,428.828 305.679,428.495 316.5,427.5C 320.767,426.232 323.767,423.565 325.5,419.5C 331.197,418.49 336.53,416.49 341.5,413.5 Z"/></g>
<g><path style="opacity:1" fill="#ef3d90" d="M 371.5,415.5 C 373.833,415.833 375.167,417.167 375.5,419.5C 374.5,421.167 373.167,422.5 371.5,423.5C 369.722,421.171 368.722,418.504 368.5,415.5C 369.5,415.5 370.5,415.5 371.5,415.5 Z"/></g>
<g><path style="opacity:1" fill="#e3408c" d="M 325.5,419.5 C 323.767,423.565 320.767,426.232 316.5,427.5C 305.448,428.143 294.781,427.476 284.5,425.5C 298.292,425.232 311.959,423.232 325.5,419.5 Z"/></g>
<g><path style="opacity:1" fill="#7f1f4c" d="M 283.5,425.5 C 283.833,425.5 284.167,425.5 284.5,425.5C 294.781,427.476 305.448,428.143 316.5,427.5C 305.679,428.495 294.679,428.828 283.5,428.5C 283.5,427.5 283.5,426.5 283.5,425.5 Z"/></g>
<g><path style="opacity:1" fill="#040001" d="M 271.5,460.5 C 314.5,460.5 357.5,460.5 400.5,460.5C 403.5,464.167 406.833,467.5 410.5,470.5C 409.977,472.708 408.644,474.208 406.5,475C 361.501,475.5 316.501,475.667 271.5,475.5C 264.833,470.5 264.833,465.5 271.5,460.5 Z"/></g>
<g><path style="opacity:1" fill="#fc3d95" d="M 410.5,470.5 C 419.527,478.86 428.194,487.527 436.5,496.5C 381.5,496.5 326.5,496.5 271.5,496.5C 271.5,489.5 271.5,482.5 271.5,475.5C 316.501,475.667 361.501,475.5 406.5,475C 408.644,474.208 409.977,472.708 410.5,470.5 Z"/></g>
</svg>
