<?xml version="1.0" encoding="UTF-8"?>
<!DOCTYPE svg PUBLIC "-//W3C//DTD SVG 1.1//EN" "http://www.w3.org/Graphics/SVG/1.1/DTD/svg11.dtd">
<svg xmlns="http://www.w3.org/2000/svg" version="1.1" width="512px" height="512px" style="shape-rendering:geometricPrecision; text-rendering:geometricPrecision; image-rendering:optimizeQuality; fill-rule:evenodd; clip-rule:evenodd" xmlns:xlink="http://www.w3.org/1999/xlink">
<g><path style="opacity:0.936" fill="#020303" d="M 190.5,157.5 C 190.338,155.473 190.505,153.473 191,151.5C 212.867,137.906 217.534,119.906 205,97.5C 193.603,84.5931 179.769,81.0931 163.5,87C 145.288,97.2919 139.454,112.459 146,132.5C 150.333,140.833 156.667,147.167 165,151.5C 165.495,153.473 165.662,155.473 165.5,157.5C 165.423,158.75 164.756,159.583 163.5,160C 158.581,160.714 154.247,159.381 150.5,156C 130.529,138.221 126.696,117.388 139,93.5C 152.371,75.5988 169.871,69.4321 191.5,75C 215.834,85.1625 226.001,103.329 222,129.5C 218.625,142.534 211.125,152.367 199.5,159C 196.177,159.932 193.177,159.432 190.5,157.5 Z"/></g>
<g><path style="opacity:0.938" fill="#010202" d="M 411.5,115.5 C 414.485,116 415.818,117.833 415.5,121C 415.756,124.546 414.089,126.379 410.5,126.5C 399.833,126.5 389.167,126.5 378.5,126.5C 374.827,143.673 364.827,155.506 348.5,162C 345.568,162.953 342.568,163.453 339.5,163.5C 339.5,173.833 339.5,184.167 339.5,194.5C 365.813,197.988 383.146,212.321 391.5,237.5C 391.324,240.225 389.99,241.892 387.5,242.5C 384.956,242.896 382.789,242.229 381,240.5C 370.765,215.125 351.932,203.625 324.5,206C 294.58,214.605 281.413,234.438 285,265.5C 293.563,293.367 312.396,306.201 341.5,304C 361.602,299.898 374.769,288.065 381,268.5C 382.992,266.211 385.492,264.877 388.5,264.5C 389.172,265.267 390.005,265.934 391,266.5C 391.891,272.167 390.891,277.501 388,282.5C 377.552,301.814 361.385,312.814 339.5,315.5C 339.5,326.167 339.5,336.833 339.5,347.5C 355.834,349.319 367.667,357.652 375,372.5C 384.69,400.441 376.524,421.275 350.5,435C 329.547,441.803 311.713,436.969 297,420.5C 283.835,400.331 284.502,380.664 299,361.5C 306.726,353.221 316.226,348.554 327.5,347.5C 327.5,336.833 327.5,326.167 327.5,315.5C 296.179,310.179 277.845,291.845 272.5,260.5C 261.167,259.167 249.833,259.167 238.5,260.5C 233.155,291.845 214.821,310.179 183.5,315.5C 183.5,326.167 183.5,336.833 183.5,347.5C 200.62,349.785 212.787,358.785 220,374.5C 228.113,401.765 219.613,421.931 194.5,435C 167.648,442.823 147.815,434.323 135,409.5C 126.833,381.3 136,361.133 162.5,349C 165.432,348.047 168.432,347.547 171.5,347.5C 171.5,336.833 171.5,326.167 171.5,315.5C 139.943,310.11 121.61,291.61 116.5,260C 107.84,259.5 99.1731,259.334 90.5,259.5C 84.9163,289.461 66.9163,303.294 36.5,301C 16.7308,296.728 4.39748,284.894 -0.5,265.5C -0.5,259.167 -0.5,252.833 -0.5,246.5C 5.92501,223.678 21.0917,211.678 45,210.5C 69.0907,211.761 83.9241,224.095 89.5,247.5C 98.8333,247.5 108.167,247.5 117.5,247.5C 122.935,217.065 140.935,199.398 171.5,194.5C 171.5,182.5 171.5,170.5 171.5,158.5C 172.786,153.922 175.786,152.422 180.5,154C 181.781,155.409 182.781,156.909 183.5,158.5C 183.5,170.5 183.5,182.5 183.5,194.5C 214.096,199.43 232.096,217.097 237.5,247.5C 249.5,247.5 261.5,247.5 273.5,247.5C 276.856,224.969 288.856,208.802 309.5,199C 315.281,196.572 321.281,195.072 327.5,194.5C 327.5,184.167 327.5,173.833 327.5,163.5C 307.053,160.85 294.22,149.517 289,129.5C 285.234,96.0891 300.067,77.0891 333.5,72.5C 359.578,75.0797 374.912,89.2463 379.5,115C 390.161,115.5 400.828,115.667 411.5,115.5 Z"/></g>
<g><path style="opacity:0.935" fill="#010202" d="M 412.5,137.5 C 417.385,136.856 420.552,138.856 422,143.5C 438.767,161.897 456.767,163.231 476,147.5C 490.559,127.251 488.059,109.418 468.5,94C 449.135,84.9048 433.135,88.9048 420.5,106C 418.527,106.495 416.527,106.662 414.5,106.5C 411.288,103.979 410.788,100.979 413,97.5C 425.044,81.9245 440.877,75.7579 460.5,79C 483.236,85.4038 495.236,100.404 496.5,124C 494.648,148.724 481.648,163.724 457.5,169C 436.127,171.232 420.294,163.066 410,144.5C 409.162,141.519 409.995,139.186 412.5,137.5 Z"/></g>
<g><path style="opacity:0.998" fill="#93f9f4" d="M 190.5,157.5 C 188.139,157.674 185.806,158.007 183.5,158.5C 182.781,156.909 181.781,155.409 180.5,154C 175.786,152.422 172.786,153.922 171.5,158.5C 169.5,158.167 167.5,157.833 165.5,157.5C 165.662,155.473 165.495,153.473 165,151.5C 156.667,147.167 150.333,140.833 146,132.5C 139.454,112.459 145.288,97.2919 163.5,87C 179.769,81.0931 193.603,84.5931 205,97.5C 217.534,119.906 212.867,137.906 191,151.5C 190.505,153.473 190.338,155.473 190.5,157.5 Z"/></g>
<g><path style="opacity:1" fill="#f05353" d="M 324.5,84.5 C 345.049,82.1848 359.215,90.5182 367,109.5C 370.26,128.816 363.093,142.649 345.5,151C 324.781,156.659 309.948,149.826 301,130.5C 295.882,108.401 303.715,93.0674 324.5,84.5 Z"/></g>
<g><path style="opacity:0.997" fill="#93f9f4" d="M 412.5,137.5 C 411.358,133.929 410.691,130.262 410.5,126.5C 414.089,126.379 415.756,124.546 415.5,121C 415.818,117.833 414.485,116 411.5,115.5C 411.528,112.084 412.528,109.084 414.5,106.5C 416.527,106.662 418.527,106.495 420.5,106C 433.135,88.9048 449.135,84.9048 468.5,94C 488.059,109.418 490.559,127.251 476,147.5C 456.767,163.231 438.767,161.897 422,143.5C 420.552,138.856 417.385,136.856 412.5,137.5 Z"/></g>
<g><path style="opacity:1" fill="#050707" d="M 170.5,100.5 C 170.5,104.833 170.5,109.167 170.5,113.5C 175.167,113.5 179.833,113.5 184.5,113.5C 184.5,109.167 184.5,104.833 184.5,100.5C 184.956,97.7144 186.623,96.381 189.5,96.5C 191.912,96.4062 193.745,97.4062 195,99.5C 195.667,112.167 195.667,124.833 195,137.5C 192.078,142.233 188.745,142.566 185,138.5C 184.501,133.845 184.334,129.179 184.5,124.5C 180.03,123.514 175.363,123.181 170.5,123.5C 170.5,128.167 170.5,132.833 170.5,137.5C 168.279,141.806 165.279,142.472 161.5,139.5C 160.352,125.879 160.185,112.212 161,98.5C 163.153,96.5561 165.653,96.0561 168.5,97C 169.823,97.8159 170.489,98.9826 170.5,100.5 Z"/></g>
<g><path style="opacity:1" fill="#070202" d="M 326.5,96.5 C 331.93,96.161 337.264,96.661 342.5,98C 346.039,99.9069 348.539,102.74 350,106.5C 350.91,115.244 350.576,123.911 349,132.5C 342.32,141.613 333.82,143.779 323.5,139C 319.619,136.072 317.119,132.239 316,127.5C 315.333,121.167 315.333,114.833 316,108.5C 317.963,103.044 321.463,99.0437 326.5,96.5 Z"/></g>
<g><path style="opacity:1" fill="#040706" d="M 443.5,104.5 C 443.5,109.167 443.5,113.833 443.5,118.5C 448.167,118.5 452.833,118.5 457.5,118.5C 457.5,114.167 457.5,109.833 457.5,105.5C 457.956,102.714 459.623,101.381 462.5,101.5C 464.912,101.406 466.745,102.406 468,104.5C 468.667,117.167 468.667,129.833 468,142.5C 465.078,147.233 461.745,147.566 458,143.5C 457.501,138.845 457.334,134.179 457.5,129.5C 453.03,128.514 448.363,128.181 443.5,128.5C 443.5,133.167 443.5,137.833 443.5,142.5C 441.326,146.793 438.326,147.46 434.5,144.5C 433.352,130.879 433.185,117.212 434,103.5C 437.579,100.627 440.745,100.96 443.5,104.5 Z"/></g>
<g><path style="opacity:1" fill="#e95050" d="M 330.5,106.5 C 334.684,105.704 337.85,107.037 340,110.5C 340.667,115.833 340.667,121.167 340,126.5C 339.535,127.931 338.701,129.097 337.5,130C 333.409,131.227 329.909,130.394 327,127.5C 326.333,121.5 326.333,115.5 327,109.5C 328.145,108.364 329.312,107.364 330.5,106.5 Z"/></g>
<g><path style="opacity:1" fill="#72c1bd" d="M 170.5,100.5 C 171.483,104.298 171.817,108.298 171.5,112.5C 175.5,112.5 179.5,112.5 183.5,112.5C 183.183,108.298 183.517,104.298 184.5,100.5C 184.5,104.833 184.5,109.167 184.5,113.5C 179.833,113.5 175.167,113.5 170.5,113.5C 170.5,109.167 170.5,104.833 170.5,100.5 Z"/></g>
<g><path style="opacity:1" fill="#77cac6" d="M 443.5,104.5 C 444.485,108.634 444.818,112.968 444.5,117.5C 448.5,117.5 452.5,117.5 456.5,117.5C 456.183,113.298 456.517,109.298 457.5,105.5C 457.5,109.833 457.5,114.167 457.5,118.5C 452.833,118.5 448.167,118.5 443.5,118.5C 443.5,113.833 443.5,109.167 443.5,104.5 Z"/></g>
<g><path style="opacity:1" fill="#599794" d="M 184.5,124.5 C 180.167,124.5 175.833,124.5 171.5,124.5C 171.818,129.032 171.485,133.366 170.5,137.5C 170.5,132.833 170.5,128.167 170.5,123.5C 175.363,123.181 180.03,123.514 184.5,124.5 Z"/></g>
<g><path style="opacity:1" fill="#4d827f" d="M 457.5,129.5 C 453.167,129.5 448.833,129.5 444.5,129.5C 444.818,134.032 444.485,138.366 443.5,142.5C 443.5,137.833 443.5,133.167 443.5,128.5C 448.363,128.181 453.03,128.514 457.5,129.5 Z"/></g>
<g><path style="opacity:1" fill="#95fcf7" d="M 168.5,205.5 C 199.793,203.978 219.293,218.311 227,248.5C 228.018,277.643 214.518,296.143 186.5,304C 157.007,306.508 137.84,293.675 129,265.5C 125.928,234.611 139.094,214.611 168.5,205.5 Z"/></g>
<g><path style="opacity:1" fill="#95fcf7" d="M 387.5,242.5 C 387.629,244.216 387.962,245.883 388.5,247.5C 381.852,251.448 381.852,255.448 388.5,259.5C 388.5,261.167 388.5,262.833 388.5,264.5C 385.492,264.877 382.992,266.211 381,268.5C 374.769,288.065 361.602,299.898 341.5,304C 312.396,306.201 293.563,293.367 285,265.5C 281.413,234.438 294.58,214.605 324.5,206C 351.932,203.625 370.765,215.125 381,240.5C 382.789,242.229 384.956,242.896 387.5,242.5 Z"/></g>
<g><path style="opacity:0.938" fill="#010202" d="M 511.5,246.5 C 511.5,252.833 511.5,259.167 511.5,265.5C 502.335,293.598 483.002,305.098 453.5,300C 433.891,293.554 422.891,280.054 420.5,259.5C 409.833,259.5 399.167,259.5 388.5,259.5C 381.852,255.448 381.852,251.448 388.5,247.5C 399.5,247.5 410.5,247.5 421.5,247.5C 427.076,224.095 441.909,211.761 466,210.5C 489.908,211.678 505.075,223.678 511.5,246.5 Z"/></g>
<g><path style="opacity:1" fill="#93f8f3" d="M 37.5,221.5 C 64.9856,220.821 78.8189,234.154 79,261.5C 73.0588,282.435 59.2255,291.935 37.5,290C 16.8715,283.251 8.03816,269.085 11,247.5C 15.2104,234.003 24.0437,225.336 37.5,221.5 Z"/></g>
<g><path style="opacity:1" fill="#93f8f3" d="M 458.5,221.5 C 478.948,219.807 492.781,228.474 500,247.5C 503.023,269.631 493.857,283.798 472.5,290C 451.262,291.466 437.762,281.966 432,261.5C 431.078,241.607 439.911,228.273 458.5,221.5 Z"/></g>
<g><path style="opacity:1" fill="#060a0a" d="M 174.5,232.5 C 180.842,232.334 187.175,232.5 193.5,233C 196.405,236.374 196.072,239.374 192.5,242C 187.833,242.333 183.167,242.667 178.5,243C 170.624,247.07 168.458,253.237 172,261.5C 173.167,263.333 174.667,264.833 176.5,266C 181.721,267.232 187.054,267.899 192.5,268C 196.566,271.745 196.233,275.078 191.5,278C 169.811,280.638 159.311,271.138 160,249.5C 162.197,241.478 167.031,235.811 174.5,232.5 Z"/></g>
<g><path style="opacity:1" fill="#060a09" d="M 330.5,232.5 C 336.842,232.334 343.175,232.5 349.5,233C 352.405,236.374 352.072,239.374 348.5,242C 343.833,242.333 339.167,242.667 334.5,243C 326.623,247.023 324.457,253.19 328,261.5C 329.251,264.381 331.417,266.214 334.5,267C 339.167,267.333 343.833,267.667 348.5,268C 352.566,271.745 352.233,275.078 347.5,278C 325.319,280.483 314.819,270.65 316,248.5C 318.626,241.046 323.46,235.712 330.5,232.5 Z"/></g>
<g><path style="opacity:1" fill="#030605" d="M 29.5,233.5 C 32.3646,233.055 34.8646,233.722 37,235.5C 37.4993,240.489 37.6659,245.489 37.5,250.5C 42.1667,250.5 46.8333,250.5 51.5,250.5C 51.3342,245.821 51.5008,241.155 52,236.5C 55.286,232.515 58.6193,232.515 62,236.5C 62.6667,249.5 62.6667,262.5 62,275.5C 58.6667,279.5 55.3333,279.5 52,275.5C 51.5008,270.845 51.3342,266.179 51.5,261.5C 46.8333,261.5 42.1667,261.5 37.5,261.5C 37.6659,266.511 37.4993,271.511 37,276.5C 33.5808,279.39 30.5808,279.057 28,275.5C 27.3333,262.167 27.3333,248.833 28,235.5C 28.7172,234.956 29.2172,234.289 29.5,233.5 Z"/></g>
<g><path style="opacity:1" fill="#040606" d="M 451.5,233.5 C 454.695,232.961 457.195,233.961 459,236.5C 459.499,241.155 459.666,245.821 459.5,250.5C 464.167,250.5 468.833,250.5 473.5,250.5C 473.334,245.489 473.501,240.489 474,235.5C 477,232.833 480,232.833 483,235.5C 483.667,248.833 483.667,262.167 483,275.5C 480.339,278.966 477.339,279.299 474,276.5C 473.501,271.511 473.334,266.511 473.5,261.5C 468.833,261.5 464.167,261.5 459.5,261.5C 459.666,266.179 459.499,270.845 459,275.5C 455.667,279.5 452.333,279.5 449,275.5C 448.333,262.5 448.333,249.5 449,236.5C 450.045,235.627 450.878,234.627 451.5,233.5 Z"/></g>
<g><path style="opacity:1" fill="#93f8f4" d="M 171.5,357.5 C 193.112,356.619 206.612,366.619 212,387.5C 212.708,406.921 203.875,419.755 185.5,426C 164.505,428.984 150.672,420.484 144,400.5C 141.091,378.297 150.257,363.963 171.5,357.5 Z"/></g>
<g><path style="opacity:1" fill="#93f8f3" d="M 327.5,357.5 C 347.09,356.538 360.257,365.204 367,383.5C 370.374,404.935 361.874,419.102 341.5,426C 321.003,429.005 307.169,420.838 300,401.5C 296.784,378.907 305.95,364.241 327.5,357.5 Z"/></g>
<g><path style="opacity:1" fill="#050707" d="M 170.5,373.5 C 170.5,378.167 170.5,382.833 170.5,387.5C 175.363,387.819 180.03,387.486 184.5,386.5C 184.334,381.821 184.501,377.155 185,372.5C 188.745,368.434 192.078,368.767 195,373.5C 195.667,386.167 195.667,398.833 195,411.5C 192.79,414.29 189.956,415.123 186.5,414C 185.177,413.184 184.511,412.017 184.5,410.5C 184.5,406.167 184.5,401.833 184.5,397.5C 179.833,397.5 175.167,397.5 170.5,397.5C 170.5,401.833 170.5,406.167 170.5,410.5C 169.172,414.254 166.506,415.421 162.5,414C 162,413.5 161.5,413 161,412.5C 160.185,398.788 160.352,385.121 161.5,371.5C 165.279,368.528 168.279,369.194 170.5,373.5 Z"/></g>
<g><path style="opacity:1" fill="#060a09" d="M 340.5,410.5 C 340.5,406.167 340.5,401.833 340.5,397.5C 335.833,397.5 331.167,397.5 326.5,397.5C 326.5,401.833 326.5,406.167 326.5,410.5C 326.044,413.286 324.377,414.619 321.5,414.5C 319.088,414.594 317.255,413.594 316,411.5C 315.333,398.833 315.333,386.167 316,373.5C 318.922,368.767 322.255,368.434 326,372.5C 326.499,377.155 326.666,381.821 326.5,386.5C 331.167,386.5 335.833,386.5 340.5,386.5C 340.219,381.435 340.552,376.435 341.5,371.5C 343.996,369.047 346.662,368.88 349.5,371C 350.656,384.758 350.823,398.592 350,412.5C 347.847,414.444 345.347,414.944 342.5,414C 341.177,413.184 340.511,412.017 340.5,410.5 Z"/></g>
<g><path style="opacity:1" fill="#477876" d="M 170.5,373.5 C 171.485,377.634 171.818,381.968 171.5,386.5C 175.833,386.5 180.167,386.5 184.5,386.5C 180.03,387.486 175.363,387.819 170.5,387.5C 170.5,382.833 170.5,378.167 170.5,373.5 Z"/></g>
<g><path style="opacity:1" fill="#73c2bf" d="M 184.5,410.5 C 183.517,406.702 183.183,402.702 183.5,398.5C 179.5,398.5 175.5,398.5 171.5,398.5C 171.817,402.702 171.483,406.702 170.5,410.5C 170.5,406.167 170.5,401.833 170.5,397.5C 175.167,397.5 179.833,397.5 184.5,397.5C 184.5,401.833 184.5,406.167 184.5,410.5 Z"/></g>
<g><path style="opacity:1" fill="#73c2be" d="M 340.5,410.5 C 339.517,406.702 339.183,402.702 339.5,398.5C 335.5,398.5 331.5,398.5 327.5,398.5C 327.817,402.702 327.483,406.702 326.5,410.5C 326.5,406.167 326.5,401.833 326.5,397.5C 331.167,397.5 335.833,397.5 340.5,397.5C 340.5,401.833 340.5,406.167 340.5,410.5 Z"/></g>
</svg>
